<svg id="Icon" xmlns="http://www.w3.org/2000/svg" width="39" height="38.939" viewBox="0 0 39 38.939">
  <ellipse id="Oval_Copy_2" data-name="Oval Copy 2" cx="19.5" cy="19.469" rx="19.5" ry="19.469" transform="translate(0 0)" fill="#00c2ee"/>
  <path id="Shape_Copy" data-name="Shape Copy" d="M10.648,22.325A10.99,10.99,0,1,1,18.432,3.563a10.99,10.99,0,0,1-7.784,18.762ZM9.96,8.586a.689.689,0,0,0-.688.688v6.869a.688.688,0,0,0,.688.687h1.376a.688.688,0,0,0,.688-.687V9.274a.688.688,0,0,0-.688-.688Zm0-4.121a.688.688,0,0,0-.688.687V6.526a.688.688,0,0,0,.688.687h1.376a.688.688,0,0,0,.688-.687V5.152a.688.688,0,0,0-.688-.687Z" transform="translate(9 7.987)" fill="#fff"/>
</svg>
