<svg xmlns="http://www.w3.org/2000/svg" width="50" height="50.312" viewBox="0 0 50 50.312">
  <g id="Icon" transform="translate(0 0)">
    <ellipse id="Oval_Copy_3" data-name="Oval Copy 3" cx="25" cy="25.156" rx="25" ry="25.156" transform="translate(0 0)" fill="#7100d0"/>
    <path id="Shape" d="M8.656,23.963c-1.01,0-3.178-1.971-3.178-2.921H15.521c0,.95-2.168,2.921-3.178,2.921ZM0,19.152V16.7a4.313,4.313,0,0,0,3.134-4.233c0-3.136.018-7.849,5.567-8.907a1.183,1.183,0,0,1-.044-.179C8.656,2.434,9.482,0,10.5,0s1.843,2.434,1.843,3.386a1.183,1.183,0,0,1-.044.179c5.549,1.058,5.566,5.772,5.566,8.907A4.313,4.313,0,0,0,21,16.7v2.447Z" transform="translate(15 12.98)" fill="#fff"/>
  </g>
</svg>
